# xmcd
#
# Track frame offsets:
#	150
#	11365
#	28508
#	45309
#	60505
#	74226
#	96473
#	113342
#	129398
#	142713
#
# Disc length: 2077 seconds
#
# Revision: 0
# Processed by: cddbd v1.4PL0 Copyright (c) Steve Scherf et al.
# Submitted via: dBpowerAMP V4.0
#
DISCID=7a081b0a
DTITLE=Diamond Rio - Love A Little Stronger
DYEAR=1900
DGENRE=Country
TTITLE0=Love A Little Stronger
TTITLE1=You A'int In It
TTITLE2=Finish What We Started
TTITLE3=Night Is Fallin' in My Heart
TTITLE4=Down By The Riverside
TTITLE5=Wild Blue Yonder
TTITLE6=Bubba Hyde
TTITLE7=Gone Out of My Mind
TTITLE8=Appalachain Dream
TTITLE9=Kentucky Mine
EXTD=
EXTT0=
EXTT1=
EXTT2=
EXTT3=
EXTT4=
EXTT5=
EXTT6=
EXTT7=
EXTT8=
EXTT9=
PLAYORDER=
